<svg width="90" height="90" viewBox="0 0 90 90" fill="none" xmlns="http://www.w3.org/2000/svg">
<g clip-path="url(#clip0_0_1010)">
<path d="M46.3967 0.590449C46.2213 0.403934 46.0095 0.255324 45.7744 0.153776C45.5393 0.0522289 45.2859 -0.000104783 45.0299 1.5751e-07C44.4799 1.5751e-07 43.9866 0.237305 43.6423 0.613125L25.5802 16.0007L26.6911 17.3048L45.032 1.67906L63.5275 17.3065L64.633 15.9987L46.3967 0.590449Z" fill="#E0E0E0"/>
<path d="M76.3343 76.4802C75.7953 76.0107 75.7916 75.1757 76.3225 74.697C77.8667 73.3048 78.8379 71.2897 78.8379 69.0467C78.8379 66.7806 77.8463 64.7471 76.2742 63.3537C75.7391 62.8796 75.7391 62.0447 76.2742 61.5706C77.8463 60.1772 78.8379 58.1437 78.8379 55.8775C78.8379 53.6114 77.8463 51.5779 76.2742 50.1845C75.7391 49.7104 75.7391 48.8755 76.2742 48.4014C77.8463 47.008 78.8379 44.9745 78.8379 42.7084C78.8379 40.4422 77.8463 38.4087 76.2742 37.0153C75.7391 36.5412 75.7391 35.7063 76.2742 35.2322C77.8463 33.8388 78.8379 31.8053 78.8379 29.5392C78.8379 27.3194 77.8871 25.3222 76.3707 23.9314C75.8438 23.4484 75.8512 22.6134 76.394 22.1485C78.0227 20.7535 79.0552 18.6826 79.0552 16.37C79.0552 14.2415 78.18 12.3181 76.7713 10.9371C75.3903 9.52824 73.4669 8.6532 71.3384 8.6532C69.1921 8.6532 67.2545 9.54265 65.8718 10.9723C65.727 11.1227 65.5533 11.2423 65.3612 11.324C65.1691 11.4057 64.9625 11.4478 64.7537 11.4478C64.545 11.4478 64.3383 11.4057 64.1462 11.324C63.9541 11.2423 63.7805 11.1227 63.6357 10.9723C62.253 9.54248 60.3153 8.6532 58.169 8.6532C56.0227 8.6532 54.0851 9.54265 52.7024 10.9725C52.5576 11.1228 52.384 11.2425 52.1919 11.3242C51.9997 11.4059 51.7931 11.448 51.5844 11.448C51.3756 11.448 51.169 11.4059 50.9769 11.3242C50.7848 11.2425 50.6111 11.1228 50.4663 10.9725C49.084 9.54265 47.1463 8.65337 45 8.65337C42.7339 8.65337 40.7004 9.64496 39.307 11.2171C38.8329 11.7522 37.998 11.7522 37.5239 11.2171C36.1305 9.64496 34.097 8.65337 31.8309 8.65337C29.5749 8.65337 27.5493 9.63599 26.1565 11.1959C25.6998 11.7074 24.9119 11.7404 24.4227 11.2599L24.0945 10.9375C22.6366 9.45001 20.574 8.5574 18.3034 8.66164C14.4092 8.84041 11.2405 12.009 11.0616 15.9035C10.9574 18.1739 11.85 20.2367 13.3374 21.6946C13.4328 21.7918 13.5307 21.8866 13.631 21.9786C14.1571 22.4615 14.1488 23.296 13.6064 23.7605C11.9774 25.1555 10.9447 27.2266 10.9447 29.5395C10.9447 31.8057 11.9361 33.8391 13.5085 35.2326C14.0435 35.7066 14.0435 36.5416 13.5085 37.0157C11.9363 38.4091 10.9447 40.4425 10.9447 42.7087C10.9447 44.9749 11.9361 47.0083 13.5085 48.4017C14.0435 48.8758 14.0435 49.7108 13.5085 50.1849C11.9363 51.5783 10.9447 53.6117 10.9447 55.8779C10.9447 58.1441 11.9361 60.1775 13.5085 61.5709C14.0435 62.045 14.0435 62.88 13.5085 63.354C11.9363 64.7475 10.9447 66.7809 10.9447 69.0471C10.9447 71.3132 11.9361 73.3467 13.5085 74.7401C14.0435 75.2142 14.0435 76.0491 13.5085 76.5232C11.9363 77.9166 10.9447 79.9501 10.9447 82.2163C10.9447 86.4181 14.351 89.8244 18.5529 89.8244C18.5711 89.8244 18.5891 89.8232 18.6072 89.823C18.6253 89.8232 18.6432 89.8244 18.6615 89.8244C20.9277 89.8244 22.9611 88.8328 24.3545 87.2606C24.8286 86.7256 25.6636 86.7256 26.1377 87.2606C27.5311 88.8328 29.5645 89.8244 31.8307 89.8244C34.0968 89.8244 36.1303 88.8328 37.5237 87.2606C37.9978 86.7256 38.8327 86.7256 39.3068 87.2606C40.7002 88.8328 42.7337 89.8244 44.9999 89.8244C47.266 89.8244 49.2995 88.8328 50.6929 87.2606C51.167 86.7256 52.0019 86.7256 52.476 87.2606C53.8694 88.8328 55.9029 89.8244 58.169 89.8244C60.4102 89.8244 62.4247 88.855 63.8169 87.3127C64.2885 86.7903 65.1101 86.7903 65.5817 87.3127C66.9739 88.8548 68.9882 89.8244 71.2296 89.8244C71.2479 89.8244 71.2658 89.8232 71.2839 89.823C71.302 89.8232 71.3199 89.8244 71.3382 89.8244C75.5401 89.8244 78.9464 86.4181 78.9464 82.2163C78.9466 79.9265 77.9346 77.8745 76.3343 76.4802ZM58.1692 74.6076C55.356 74.6076 52.9011 76.1356 51.5846 78.406C50.2682 76.1358 47.8134 74.6076 45 74.6076C42.1867 74.6076 39.7319 76.1356 38.4154 78.406C37.099 76.1358 34.6442 74.6076 31.8309 74.6076C29.0175 74.6076 26.5627 76.1356 25.2463 78.406C24.5679 77.237 23.5918 76.2688 22.4172 75.6C24.6577 74.276 26.1614 71.8376 26.1614 69.0467C26.1614 66.2335 24.6333 63.7786 22.3629 62.4621C24.6331 61.1457 26.1614 58.6909 26.1614 55.8775C26.1614 53.0643 24.6333 50.6094 22.3629 49.2929C24.6331 47.9765 26.1614 45.5217 26.1614 42.7084C26.1614 39.895 24.6333 37.4402 22.3629 36.1238C24.6331 34.8073 26.1614 32.3526 26.1614 29.5392C26.1614 26.7706 24.6824 24.3482 22.4716 23.017C23.6567 22.355 24.6441 21.3893 25.3322 20.2193C26.6682 22.4083 29.0788 23.8697 31.8309 23.8697C34.6441 23.8697 37.099 22.3416 38.4154 20.0712C39.7319 22.3415 42.1867 23.8697 45 23.8697C47.8134 23.8697 50.2682 22.3416 51.5846 20.0712C52.9011 22.3415 55.356 23.8697 58.1692 23.8697C60.9824 23.8697 63.4374 22.3416 64.7538 20.0712C65.0989 20.6665 65.5229 21.2125 66.0142 21.6942C66.4663 22.156 66.9751 22.5585 67.5285 22.8922C65.1982 24.1926 63.6214 26.6811 63.6214 29.5392C63.6214 32.3524 65.1495 34.8073 67.4199 36.1238C65.1497 37.4402 63.6214 39.8952 63.6214 42.7084C63.6214 45.5216 65.1495 47.9765 67.4199 49.2929C65.1497 50.6094 63.6214 53.0642 63.6214 55.8775C63.6214 58.6907 65.1495 61.1457 67.4199 62.4621C65.1497 63.7786 63.6214 66.2333 63.6214 69.0467C63.6214 71.8599 65.1495 74.3149 67.4199 75.6313C66.3009 76.2801 65.3649 77.2024 64.6995 78.3116C63.3702 76.0931 60.9436 74.6076 58.1692 74.6076Z" fill="#8E6049"/>
<path d="M68.7777 82.2158H21.2073C19.8014 82.2158 18.6616 81.0761 18.6616 79.6702V18.9158C18.6616 17.5099 19.8014 16.3701 21.2073 16.3701H68.7777C70.1836 16.3701 71.3234 17.5099 71.3234 18.9158V79.6702C71.3234 81.0761 70.1836 82.2158 68.7777 82.2158Z" fill="#76DFFF"/>
<path d="M63.2239 61.5142L49.823 43.6465C49.3321 42.9916 48.35 42.9967 47.8591 43.6516L39.0992 55.3407L36.0133 51.9425C35.5262 51.406 34.683 51.4067 34.1959 51.9432L25.5703 61.4252C24.8546 62.2138 25.4141 63.4572 26.479 63.4572H62.242C63.2531 63.4571 63.8305 62.3233 63.2239 61.5142Z" fill="#BCBBBB"/>
<path d="M69.9065 82.2159H20.0788C19.703 82.2159 19.3426 82.0666 19.0769 81.8009C18.8112 81.5352 18.6619 81.1747 18.6619 80.7989V61.813H71.3236V80.7989C71.3236 81.1748 71.1743 81.5352 70.9085 81.8009C70.6427 82.0666 70.2823 82.2159 69.9065 82.2159Z" fill="#009E83"/>
<path d="M58.2662 37.5386C60.2581 37.5386 61.8729 35.9238 61.8729 33.9319C61.8729 31.94 60.2581 30.3252 58.2662 30.3252C56.2743 30.3252 54.6595 31.94 54.6595 33.9319C54.6595 35.9238 56.2743 37.5386 58.2662 37.5386Z" fill="#FFB636"/>
<path d="M63.3565 53.954C63.7745 53.6594 64.3276 53.5432 64.9043 53.7164C65.6319 53.9347 66.1145 54.6265 66.1145 55.3863C66.1145 55.3933 66.1087 55.3991 66.1017 55.3991H49.2195C48.8428 55.3991 48.5642 55.0412 48.6639 54.6779C48.9799 53.5239 50.0362 52.6759 51.2906 52.6759C51.2906 51.3391 52.3743 50.2552 53.7112 50.2552C55.0482 50.2552 56.1319 51.3389 56.1319 52.6759C56.1319 50.5359 57.9333 48.8166 60.1025 48.9516C61.893 49.0631 63.378 50.4728 63.5726 52.2563C63.6385 52.844 63.5646 53.4389 63.3567 53.9925L63.3565 53.954ZM32.3243 35.7144C31.9063 35.4198 31.3533 35.3036 30.7765 35.4768C30.049 35.6951 29.5663 36.387 29.5663 37.1467C29.5663 37.1537 29.5721 37.1595 29.5791 37.1595H46.4613C46.838 37.1595 47.1166 36.8016 47.017 36.4383C46.7009 35.2843 45.6446 34.4363 44.3903 34.4363C44.3903 33.0995 43.3066 32.0156 41.9696 32.0156C40.6328 32.0156 39.5489 33.0993 39.5489 34.4363C39.5489 32.2964 37.7475 30.577 35.5784 30.712C33.7878 30.8235 32.3028 32.2332 32.1083 34.0167C32.0423 34.6044 32.1163 35.1993 32.3241 35.7529V35.7144H32.3243Z" fill="white"/>
</g>
<defs>
<clipPath id="clip0_0_1010">
<rect width="90" height="90" fill="white"/>
</clipPath>
</defs>
</svg>
